<?xml version="1.0" standalone="no"?>
<!DOCTYPE svg PUBLIC "-//W3C//DTD SVG 20010904//EN"
 "http://www.w3.org/TR/2001/REC-SVG-20010904/DTD/svg10.dtd">
<svg version="1.0" xmlns="http://www.w3.org/2000/svg"
 width="100.000000pt" height="100.000000pt" viewBox="0 0 100.000000 100.000000"
 preserveAspectRatio="xMidYMid meet">

<g transform="translate(0.000000,100.000000) scale(0.100000,-0.100000)"
fill="#000000" stroke="none">
<path d="M395 901 c-152 -33 -225 -126 -225 -285 0 -72 26 -131 76 -175 44
-39 84 -49 246 -61 154 -12 164 -14 179 -42 17 -32 -7 -66 -55 -79 -37 -10
-95 -10 -366 4 l-35 2 -9 -83 c-6 -61 -6 -86 3 -95 17 -17 388 -23 480 -7 84
14 132 48 162 115 40 87 16 228 -50 294 -50 50 -118 69 -277 80 -72 4 -137 12
-144 16 -17 11 -6 86 15 101 28 21 142 27 269 16 66 -6 124 -8 128 -4 4 4 9
46 10 92 l3 85 -60 12 c-78 16 -298 25 -350 14z m119 -46 c3 -8 10 -15 17 -15
6 0 9 7 5 15 -3 9 0 15 10 15 8 0 17 -7 20 -15 4 -8 10 -15 15 -15 5 0 9 7 9
15 0 20 9 19 32 -2 15 -14 21 -15 27 -4 6 10 21 11 62 4 l54 -9 -3 -54 c-2
-30 -4 -55 -5 -56 -1 -1 -16 0 -33 3 -26 4 -30 8 -26 29 6 33 -14 31 -22 -2
-6 -23 -11 -26 -38 -20 -17 3 -44 6 -60 6 -21 0 -31 6 -35 20 -3 11 -10 20
-15 20 -6 0 -8 -9 -5 -20 4 -15 0 -20 -14 -20 -10 0 -19 7 -19 15 0 22 -17 18
-23 -5 -3 -13 -14 -20 -29 -20 -12 0 -36 -7 -52 -15 -22 -12 -32 -12 -43 -4
-17 15 -31 3 -15 -13 19 -19 14 -48 -8 -48 -11 0 -20 -4 -20 -10 0 -5 7 -10
15 -10 8 0 15 -7 15 -15 0 -9 -7 -18 -15 -21 -8 -4 -15 -11 -15 -16 0 -6 6 -8
14 -5 8 3 20 -1 28 -10 22 -27 74 -43 137 -43 51 0 61 -3 66 -20 3 -11 11 -20
16 -20 6 0 7 9 4 20 -6 19 -3 20 37 14 140 -20 192 -58 223 -161 5 -17 2 -23
-9 -23 -9 0 -16 -4 -16 -10 0 -5 7 -10 15 -10 8 0 15 -4 15 -10 0 -5 -7 -10
-15 -10 -8 0 -15 -4 -15 -10 0 -5 7 -10 15 -10 17 0 20 -32 5 -60 -6 -12 -16
-17 -26 -13 -12 4 -14 0 -9 -20 7 -25 -8 -46 -20 -27 -12 19 -26 10 -20 -11 5
-15 4 -19 -4 -15 -6 4 -11 14 -11 22 0 8 -4 14 -10 14 -5 0 -10 -11 -10 -24 0
-21 -6 -25 -46 -31 -34 -5 -49 -3 -55 7 -7 10 -11 10 -21 0 -17 -17 -39 -15
-32 3 4 8 2 15 -4 15 -5 0 -12 -7 -16 -15 -8 -23 -28 -18 -21 5 8 26 -7 26
-23 0 -16 -25 -95 -30 -86 -5 4 8 1 15 -5 15 -7 0 -14 -7 -17 -15 -4 -8 -15
-15 -26 -15 -17 0 -18 2 -8 15 20 24 2 31 -23 8 -16 -15 -31 -19 -55 -16 l-34
5 7 52 c4 28 8 52 9 52 0 1 35 -3 76 -8 41 -5 129 -7 195 -4 66 4 132 7 148 8
22 1 26 5 22 19 -5 14 -1 19 14 19 12 0 21 5 21 10 0 6 -3 10 -8 10 -10 0 -9
92 2 108 13 20 -4 29 -18 10 -17 -23 -28 -11 -15 14 13 23 2 39 -11 18 -5 -8
-11 -18 -12 -21 -2 -3 -44 -1 -94 5 -65 8 -90 15 -87 24 6 16 -3 15 -33 -4
-28 -19 -43 -12 -24 11 7 9 9 19 5 23 -4 4 -14 -3 -22 -15 -9 -13 -22 -23 -30
-23 -13 0 -13 3 -3 15 7 9 10 19 6 23 -4 4 -13 -1 -20 -11 -17 -23 -43 -22
-85 4 -29 17 -32 24 -27 50 3 16 1 29 -4 29 -6 0 -10 -5 -10 -12 0 -9 -3 -9
-12 0 -9 9 -7 16 7 32 21 23 13 39 -10 20 -13 -11 -15 -8 -15 19 0 24 4 31 20
31 27 0 25 16 -2 25 l-23 8 23 4 c25 5 30 23 6 23 -24 0 -12 35 14 38 24 4 31
22 7 22 -8 0 -15 3 -15 8 1 13 34 49 64 68 28 17 28 17 46 -7 10 -13 22 -20
26 -16 4 4 2 13 -4 19 -7 7 -12 16 -12 20 0 14 23 8 36 -9 7 -10 16 -15 20
-11 4 4 1 14 -5 22 -10 12 -8 15 11 19 51 10 86 7 92 -8z"/>
<path d="M310 510 c0 -5 5 -10 11 -10 5 0 7 5 4 10 -3 6 -8 10 -11 10 -2 0 -4
-4 -4 -10z"/>
<path d="M620 169 c0 -5 5 -7 10 -4 6 3 10 8 10 11 0 2 -4 4 -10 4 -5 0 -10
-5 -10 -11z"/>
</g>
</svg>
